STARTFONT 2.1
FONT -FontForge-Bitstream Vera Sans-Book-R-Normal-Sans--32-310-75-75-P-192-ISO8859-1
SIZE 31 75 75
FONTBOUNDINGBOX 48 38 -6 -8
COMMENT "Generated by fontforge, http://fontforge.sourceforge.net"
COMMENT "Copyright (c) 2003 by Bitstream, Inc. All Rights Reserved."
STARTPROPERTIES 40
FOUNDRY "FontForge"
FAMILY_NAME "Bitstream Vera Sans"
WEIGHT_NAME "Book"
SLANT "R"
SETWIDTH_NAME "Normal"
ADD_STYLE_NAME "Sans"
PIXEL_SIZE 32
POINT_SIZE 310
RESOLUTION_X 75
RESOLUTION_Y 75
SPACING "P"
AVERAGE_WIDTH 192
CHARSET_REGISTRY "ISO8859"
CHARSET_ENCODING "1"
FONTNAME_REGISTRY ""
CHARSET_COLLECTIONS "ISO8859-9 ISOLatin1Encoding"
FONT_NAME "BitstreamVeraSans-Roman"
FACE_NAME "Bitstream Vera Sans"
COPYRIGHT "Copyright (c) 2003 by Bitstream, Inc. All Rights Reserved."
FONT_VERSION "Release 1.10"
FONT_ASCENT 24
FONT_DESCENT 8
UNDERLINE_POSITION -4
UNDERLINE_THICKNESS 3
X_HEIGHT 17
CAP_HEIGHT 22
RAW_ASCENT 759
RAW_DESCENT 240
NORM_SPACE 10
RELATIVE_WEIGHT 40
RELATIVE_SETWIDTH 50
SUPERSCRIPT_X 0
SUPERSCRIPT_Y 9
SUPERSCRIPT_SIZE 19
SUBSCRIPT_X 0
SUBSCRIPT_Y -6
SUBSCRIPT_SIZE 19
FIGURE_WIDTH 20
AVG_LOWERCASE_WIDTH 183
AVG_UPPERCASE_WIDTH 212
ENDPROPERTIES
CHARS 268
STARTCHAR space
ENCODING 32
SWIDTH 317 0
DWIDTH 10 0
BBX 1 1 0 0
BITMAP
00
ENDCHAR
STARTCHAR exclam
ENCODING 33
SWIDTH 400 0
DWIDTH 13 0
BBX 3 23 5 0
BITMAP
E0
E0
E0
E0
E0
E0
E0
E0
E0
E0
E0
E0
E0
E0
E0
00
00
00
00
E0
E0
E0
E0
ENDCHAR
STARTCHAR quotedbl
ENCODING 34
SWIDTH 459 0
DWIDTH 15 0
BBX 9 9 3 14
BITMAP
E380
E380
E380
E380
E380
E380
E380
E380
E380
ENDCHAR
STARTCHAR numbersign
ENCODING 35
SWIDTH 837 0
DWIDTH 27 0
BBX 22 23 2 0
BITMAP
0060E0
0060C0
00E0C0
00E1C0
00C1C0
00C180
3FFFFC
3FFFFC
3FFFFC
018300
038300
038700
030700
030600
FFFFF0
FFFFF0
FFFFF0
060C00
060C00
0E1C00
0E1C00
0C1800
1C1800
ENDCHAR
STARTCHAR dollar
ENCODING 36
SWIDTH 636 0
DWIDTH 20 0
BBX 16 30 2 -5
BITMAP
0180
0180
0180
0180
0FF8
3FFE
7FFE
F986
F180
E180
E180
F180
7D80
7FE0
1FF8
03FE
019E
018F
0187
0187
0187
C19F
FFFE
FFFC
3FF0
0180
0180
0180
0180
0180
ENDCHAR
STARTCHAR percent
ENCODING 37
SWIDTH 950 0
DWIDTH 30 0
BBX 27 23 2 0
BITMAP
1F001C00
3F801800
71C03000
E1E07000
E0E06000
E0E0C000
E0E1C000
E0E18000
E0E38000
E1E30000
71C61F00
3F8E3F80
1F0C71C0
0018F1E0
0038E0E0
0030E0E0
0070E0E0
0060E0E0
00C0E0E0
01C0F1E0
018071C0
03003F80
07001F00
ENDCHAR
STARTCHAR ampersand
ENCODING 38
SWIDTH 779 0
DWIDTH 25 0
BBX 22 23 2 0
BITMAP
03F800
07FE00
0FFE00
1E0600
1C0000
1C0000
1C0000
0E0000
0F0000
1F8000
3FE038
79F038
70F878
F07C70
E03EF0
E01FE0
E00FE0
F007C0
780FC0
7C1FE0
3FFDF0
1FF8F8
07F07C
ENDCHAR
STARTCHAR quotesingle
ENCODING 39
SWIDTH 274 0
DWIDTH 9 0
BBX 3 9 3 14
BITMAP
E0
E0
E0
E0
E0
E0
E0
E0
E0
ENDCHAR
STARTCHAR parenleft
ENCODING 40
SWIDTH 390 0
DWIDTH 12 0
BBX 7 29 3 -5
BITMAP
0E
0C
1C
18
38
38
70
70
70
60
E0
E0
E0
E0
E0
E0
E0
E0
E0
60
70
70
70
38
38
18
1C
0C
0E
ENDCHAR
STARTCHAR parenright
ENCODING 41
SWIDTH 390 0
DWIDTH 12 0
BBX 7 29 3 -5
BITMAP
E0
60
70
30
38
38
1C
1C
1C
0C
0E
0E
0E
0E
0E
0E
0E
0E
0E
0C
1C
1C
1C
38
38
30
70
60
E0
ENDCHAR
STARTCHAR asterisk
ENCODING 42
SWIDTH 500 0
DWIDTH 16 0
BBX 14 14 1 9
BITMAP
0300
0300
4308
E31C
7B78
1FE0
0780
0780
1FE0
7B78
E31C
4308
0300
0300
ENDCHAR
STARTCHAR plus
ENCODING 43
SWIDTH 837 0
DWIDTH 27 0
BBX 21 21 3 0
BITMAP
007000
007000
007000
007000
007000
007000
007000
007000
007000
FFFFF8
FFFFF8
FFFFF8
007000
007000
007000
007000
007000
007000
007000
007000
007000
ENDCHAR
STARTCHAR comma
ENCODING 44
SWIDTH 317 0
DWIDTH 10 0
BBX 4 8 3 -4
BITMAP
70
70
70
70
60
E0
E0
C0
ENDCHAR
STARTCHAR hyphen
ENCODING 45
SWIDTH 360 0
DWIDTH 12 0
BBX 8 3 2 7
BITMAP
FF
FF
FF
ENDCHAR
STARTCHAR period
ENCODING 46
SWIDTH 317 0
DWIDTH 10 0
BBX 3 4 4 0
BITMAP
E0
E0
E0
E0
ENDCHAR
STARTCHAR slash
ENCODING 47
SWIDTH 336 0
DWIDTH 11 0
BBX 11 26 0 -3
BITMAP
00E0
01E0
01C0
01C0
01C0
0380
0380
0380
0700
0700
0700
0F00
0E00
0E00
1E00
1C00
1C00
1C00
3800
3800
3800
7800
7000
7000
F000
E000
ENDCHAR
STARTCHAR zero
ENCODING 48
SWIDTH 636 0
DWIDTH 20 0
BBX 16 23 2 0
BITMAP
07E0
1FF8
3FFC
3C3C
781E
700E
700E
E007
E007
E007
E007
E007
E007
E007
E007
E007
700E
700E
781E
3C3C
3FFC
1FF8
07E0
ENDCHAR
STARTCHAR one
ENCODING 49
SWIDTH 636 0
DWIDTH 20 0
BBX 14 23 3 0
BITMAP
1F80
FF80
FF80
E380
0380
0380
0380
0380
0380
0380
0380
0380
0380
0380
0380
0380
0380
0380
0380
0380
7FFC
7FFC
7FFC
ENDCHAR
STARTCHAR two
ENCODING 50
SWIDTH 636 0
DWIDTH 20 0
BBX 15 23 2 0
BITMAP
3FC0
FFF0
FFFC
C03C
001E
000E
000E
000E
000E
001C
003C
0078
00F0
01E0
03C0
0780
0F00
1E00
3C00
7800
FFFE
FFFE
FFFE
ENDCHAR
STARTCHAR three
ENCODING 51
SWIDTH 636 0
DWIDTH 20 0
BBX 15 23 2 0
BITMAP
1FC0
7FF0
7FF8
607C
001C
001C
001C
001C
0078
0FF0
0FE0
0FF8
007C
001C
000E
000E
000E
000E
001E
C07C
FFF8
FFF0
3FC0
ENDCHAR
STARTCHAR four
ENCODING 52
SWIDTH 636 0
DWIDTH 20 0
BBX 17 23 2 0
BITMAP
003C00
007C00
00FC00
00DC00
01DC00
039C00
031C00
071C00
0E1C00
0C1C00
1C1C00
381C00
301C00
701C00
E01C00
FFFF80
FFFF80
FFFF80
001C00
001C00
001C00
001C00
001C00
ENDCHAR
STARTCHAR five
ENCODING 53
SWIDTH 636 0
DWIDTH 20 0
BBX 15 23 2 0
BITMAP
7FF8
7FF8
7FF8
7000
7000
7000
7000
7000
7FC0
7FF0
7FF8
607C
001C
000E
000E
000E
000E
000E
001C
C07C
FFF8
FFF0
3FC0
ENDCHAR
STARTCHAR six
ENCODING 54
SWIDTH 636 0
DWIDTH 20 0
BBX 16 23 2 0
BITMAP
03F8
0FFC
1FFC
3E04
3800
7800
7000
F000
E000
E3F0
EFF8
FFFE
FC1E
F80F
F007
F007
7007
7007
780F
3C1E
3FFC
1FF8
07F0
ENDCHAR
STARTCHAR seven
ENCODING 55
SWIDTH 636 0
DWIDTH 20 0
BBX 15 23 2 0
BITMAP
FFFE
FFFE
FFFE
001C
003C
0038
0038
0078
0070
00F0
00E0
00E0
01E0
01C0
03C0
0380
0380
0700
0700
0F00
0E00
0E00
1C00
ENDCHAR
STARTCHAR eight
ENCODING 56
SWIDTH 636 0
DWIDTH 20 0
BBX 16 23 2 0
BITMAP
07E0
1FF8
3FFC
7C3E
700E
700E
700E
700E
3C3C
1FF8
07E0
3FFC
781E
700E
E007
E007
E007
E007
F00F
781E
7FFE
3FFC
0FF0
ENDCHAR
STARTCHAR nine
ENCODING 57
SWIDTH 636 0
DWIDTH 20 0
BBX 16 23 2 0
BITMAP
07E0
1FF0
3FFC
783C
F01E
E00E
E00E
E00F
E00F
F01F
783F
7FFF
3FF7
0FC7
000F
000F
000E
001E
001C
207C
3FF8
3FF0
1FC0
ENDCHAR
STARTCHAR colon
ENCODING 58
SWIDTH 336 0
DWIDTH 11 0
BBX 3 17 4 0
BITMAP
E0
E0
E0
E0
00
00
00
00
00
00
00
00
00
E0
E0
E0
E0
ENDCHAR
STARTCHAR semicolon
ENCODING 59
SWIDTH 336 0
DWIDTH 11 0
BBX 4 21 3 -4
BITMAP
70
70
70
70
00
00
00
00
00
00
00
00
00
70
70
70
70
60
E0
E0
C0
ENDCHAR
STARTCHAR less
ENCODING 60
SWIDTH 837 0
DWIDTH 27 0
BBX 20 17 3 2
BITMAP
000010
0000F0
0007F0
003FE0
00FF00
07FC00
3FE000
FF0000
F80000
FF0000
3FE000
07FC00
00FF00
003FE0
0007F0
0000F0
000010
ENDCHAR
STARTCHAR equal
ENCODING 61
SWIDTH 837 0
DWIDTH 27 0
BBX 20 10 3 5
BITMAP
FFFFF0
FFFFF0
FFFFF0
000000
000000
000000
000000
FFFFF0
FFFFF0
FFFFF0
ENDCHAR
STARTCHAR greater
ENCODING 62
SWIDTH 837 0
DWIDTH 27 0
BBX 20 17 3 2
BITMAP
800000
F00000
FE0000
7FC000
0FF000
03FE00
007FC0
000FF0
0001F0
000FF0
007FC0
03FE00
0FF000
7FC000
FE0000
F00000
800000
ENDCHAR
STARTCHAR question
ENCODING 63
SWIDTH 530 0
DWIDTH 17 0
BBX 12 23 2 0
BITMAP
1F80
7FC0
FFE0
E0F0
8070
0070
0070
0070
00E0
01C0
0380
0700
0F00
0E00
0E00
0E00
0E00
0000
0000
0E00
0E00
0E00
0E00
ENDCHAR
STARTCHAR at
ENCODING 64
SWIDTH 1000 0
DWIDTH 32 0
BBX 28 28 2 -5
BITMAP
001FC000
00FFF800
03FFFE00
07E03F00
0F800F80
1E0003C0
3C0001C0
381E38E0
707FB8E0
70FFF870
F0F0F870
E1E07870
E1C03870
E1C03870
E1C03870
E1C038E0
E1E078E0
F0F0FBC0
70FFFF80
707FBF00
781E3C00
3C000000
1E000400
0F800E00
07E03E00
03FFF800
00FFF000
003F8000
ENDCHAR
STARTCHAR A
ENCODING 65
SWIDTH 684 0
DWIDTH 22 0
BBX 21 23 0 0
BITMAP
007000
00F800
00F800
01FC00
01DC00
01DC00
03CE00
038E00
078F00
070700
070700
0F0780
0E0380
0E0380
1FFFC0
1FFFC0
3FFFE0
3800E0
3800E0
7800F0
700070
700070
E00038
ENDCHAR
STARTCHAR B
ENCODING 66
SWIDTH 686 0
DWIDTH 22 0
BBX 17 23 3 0
BITMAP
FFF000
FFFC00
FFFE00
E01F00
E00700
E00700
E00700
E00700
E01E00
FFFC00
FFF800
FFFE00
E00F00
E00700
E00380
E00380
E00380
E00380
E00780
E00F00
FFFF00
FFFE00
FFF000
ENDCHAR
STARTCHAR C
ENCODING 67
SWIDTH 698 0
DWIDTH 22 0
BBX 19 23 2 0
BITMAP
00FF00
07FFC0
0FFFE0
1F01E0
3C0020
780000
700000
F00000
E00000
E00000
E00000
E00000
E00000
E00000
E00000
F00000
700000
780000
3C0020
1F01E0
0FFFE0
07FFC0
01FE00
ENDCHAR
STARTCHAR D
ENCODING 68
SWIDTH 770 0
DWIDTH 25 0
BBX 20 23 3 0
BITMAP
FFF000
FFFE00
FFFF00
E01F80
E003C0
E001E0
E000E0
E000F0
E00070
E00070
E00070
E00070
E00070
E00070
E00070
E000F0
E000E0
E001E0
E003C0
E00FC0
FFFF00
FFFE00
FFF000
ENDCHAR
STARTCHAR E
ENCODING 69
SWIDTH 631 0
DWIDTH 20 0
BBX 15 23 3 0
BITMAP
FFFE
FFFE
FFFE
E000
E000
E000
E000
E000
E000
FFFC
FFFC
FFFC
E000
E000
E000
E000
E000
E000
E000
E000
FFFE
FFFE
FFFE
ENDCHAR
STARTCHAR F
ENCODING 70
SWIDTH 575 0
DWIDTH 18 0
BBX 13 23 3 0
BITMAP
FFF8
FFF8
FFF8
E000
E000
E000
E000
E000
E000
FFF0
FFF0
FFF0
E000
E000
E000
E000
E000
E000
E000
E000
E000
E000
E000
ENDCHAR
STARTCHAR G
ENCODING 71
SWIDTH 774 0
DWIDTH 25 0
BBX 20 23 2 0
BITMAP
01FE00
07FFC0
0FFFE0
1F01E0
3C0020
780000
700000
F00000
E00000
E00000
E00FF0
E00FF0
E00FF0
E00070
E00070
F00070
700070
780070
3C0070
1F01F0
0FFFE0
07FFC0
01FE00
ENDCHAR
STARTCHAR H
ENCODING 72
SWIDTH 751 0
DWIDTH 24 0
BBX 18 23 3 0
BITMAP
E001C0
E001C0
E001C0
E001C0
E001C0
E001C0
E001C0
E001C0
E001C0
FFFFC0
FFFFC0
FFFFC0
E001C0
E001C0
E001C0
E001C0
E001C0
E001C0
E001C0
E001C0
E001C0
E001C0
E001C0
ENDCHAR
STARTCHAR I
ENCODING 73
SWIDTH 294 0
DWIDTH 9 0
BBX 3 23 3 0
BITMAP
E0
E0
E0
E0
E0
E0
E0
E0
E0
E0
E0
E0
E0
E0
E0
E0
E0
E0
E0
E0
E0
E0
E0
ENDCHAR
STARTCHAR J
ENCODING 74
SWIDTH 294 0
DWIDTH 9 0
BBX 8 29 -2 -6
BITMAP
07
07
07
07
07
07
07
07
07
07
07
07
07
07
07
07
07
07
07
07
07
07
07
07
0F
1E
FE
FC
F0
ENDCHAR
STARTCHAR K
ENCODING 75
SWIDTH 655 0
DWIDTH 21 0
BBX 18 23 3 0
BITMAP
E00780
E00F00
E01E00
E03C00
E0F800
E1F000
E3E000
E7C000
EF8000
FE0000
FC0000
FE0000
EF0000
E78000
E3C000
E1E000
E0F000
E07800
E03C00
E01E00
E00F00
E00780
E003C0
ENDCHAR
STARTCHAR L
ENCODING 76
SWIDTH 557 0
DWIDTH 18 0
BBX 15 23 3 0
BITMAP
E000
E000
E000
E000
E000
E000
E000
E000
E000
E000
E000
E000
E000
E000
E000
E000
E000
E000
E000
E000
FFFE
FFFE
FFFE
ENDCHAR
STARTCHAR M
ENCODING 77
SWIDTH 862 0
DWIDTH 28 0
BBX 21 23 3 0
BITMAP
F800F8
FC01F8
FC01F8
FC01F8
EE03B8
EE03B8
EF07B8
E70738
E70738
E78F38
E38E38
E38E38
E1DC38
E1DC38
E1DC38
E0F838
E0F838
E0F838
E07038
E00038
E00038
E00038
E00038
ENDCHAR
STARTCHAR N
ENCODING 78
SWIDTH 748 0
DWIDTH 24 0
BBX 18 23 3 0
BITMAP
F801C0
F801C0
FC01C0
FC01C0
FE01C0
EE01C0
EF01C0
E701C0
E381C0
E3C1C0
E1C1C0
E1E1C0
E0E1C0
E0F1C0
E071C0
E039C0
E03DC0
E01DC0
E01FC0
E00FC0
E00FC0
E007C0
E007C0
ENDCHAR
STARTCHAR O
ENCODING 79
SWIDTH 787 0
DWIDTH 25 0
BBX 22 23 2 0
BITMAP
01FE00
07FF80
0FFFC0
1F03E0
3C00F0
780078
700038
F00038
E0001C
E0001C
E0001C
E0001C
E0001C
E0001C
E0001C
700038
700038
780078
3C00F0
1F03E0
0FFFC0
07FF80
01FE00
ENDCHAR
STARTCHAR P
ENCODING 80
SWIDTH 603 0
DWIDTH 19 0
BBX 15 23 3 0
BITMAP
FFE0
FFF8
FFFC
E03C
E01E
E00E
E00E
E00E
E00E
E01E
E03C
FFFC
FFF8
FFE0
E000
E000
E000
E000
E000
E000
E000
E000
E000
ENDCHAR
STARTCHAR Q
ENCODING 81
SWIDTH 787 0
DWIDTH 25 0
BBX 22 27 2 -4
BITMAP
01FE00
07FF80
0FFFC0
1F03E0
3C00F0
780078
700038
F0003C
E0001C
E0001C
E0001C
E0001C
E0001C
E0001C
E0001C
700038
700038
780078
3C00F0
1F03E0
0FFFC0
07FF80
01FF00
000780
0003C0
0001E0
0000F0
ENDCHAR
STARTCHAR R
ENCODING 82
SWIDTH 694 0
DWIDTH 22 0
BBX 18 23 3 0
BITMAP
FFE000
FFF800
FFFC00
E03C00
E01E00
E00E00
E00E00
E00E00
E01E00
E03C00
FFFC00
FFF000
FFF000
E07800
E03C00
E01C00
E00E00
E00E00
E00700
E00700
E00780
E00380
E003C0
ENDCHAR
STARTCHAR S
ENCODING 83
SWIDTH 634 0
DWIDTH 20 0
BBX 16 23 2 0
BITMAP
07F8
3FFE
7FFE
7806
F000
E000
E000
E000
F000
7C00
3FE0
1FF8
03FE
003E
000F
0007
0007
0007
000F
C01E
FFFE
FFFC
3FE0
ENDCHAR
STARTCHAR T
ENCODING 84
SWIDTH 610 0
DWIDTH 20 0
BBX 19 23 0 0
BITMAP
FFFFE0
FFFFE0
FFFFE0
00E000
00E000
00E000
00E000
00E000
00E000
00E000
00E000
00E000
00E000
00E000
00E000
00E000
00E000
00E000
00E000
00E000
00E000
00E000
00E000
ENDCHAR
STARTCHAR U
ENCODING 85
SWIDTH 731 0
DWIDTH 23 0
BBX 18 23 3 0
BITMAP
E001C0
E001C0
E001C0
E001C0
E001C0
E001C0
E001C0
E001C0
E001C0
E001C0
E001C0
E001C0
E001C0
E001C0
E001C0
E001C0
E001C0
F003C0
700380
7C0F80
3FFF00
1FFE00
07F800
ENDCHAR
STARTCHAR V
ENCODING 86
SWIDTH 684 0
DWIDTH 22 0
BBX 21 23 0 0
BITMAP
E00038
700070
700070
7800F0
3800E0
3800E0
3C01E0
1C01C0
1C01C0
0E0380
0E0380
0F0780
070700
070700
038F00
038E00
038E00
01DC00
01DC00
01FC00
00F800
00F800
007000
ENDCHAR
STARTCHAR W
ENCODING 87
SWIDTH 988 0
DWIDTH 32 0
BBX 30 23 1 0
BITMAP
E007801C
E00FC03C
700FC038
700FC038
700FC038
781CE078
381CE070
381CE070
381CE070
3C3870F0
1C3870E0
1C3870E0
1C3870E0
1E7039E0
0E7039C0
0E7039C0
0EF039C0
07E01F80
07E01F80
07E01F80
07E01F80
03C00F00
03C00F00
ENDCHAR
STARTCHAR X
ENCODING 88
SWIDTH 685 0
DWIDTH 22 0
BBX 20 23 1 0
BITMAP
7801E0
3C03C0
1C0380
1E0780
0F0F00
070E00
079E00
03FC00
01F800
01F800
00F000
00F000
01F800
03F800
03BC00
079E00
0F0E00
0E0F00
1E0780
3C03C0
3801C0
7801E0
F000F0
ENDCHAR
STARTCHAR Y
ENCODING 89
SWIDTH 610 0
DWIDTH 20 0
BBX 19 23 0 0
BITMAP
F001E0
7803C0
380380
3C0780
1E0F00
0E0E00
0F1E00
07BC00
03B800
03F800
01F000
00E000
00E000
00E000
00E000
00E000
00E000
00E000
00E000
00E000
00E000
00E000
00E000
ENDCHAR
STARTCHAR Z
ENCODING 90
SWIDTH 685 0
DWIDTH 22 0
BBX 19 23 1 0
BITMAP
FFFFE0
FFFFE0
FFFFE0
0003C0
000780
000F00
000F00
001E00
003C00
007800
00F000
01E000
01E000
03C000
078000
0F0000
1E0000
1E0000
3C0000
780000
FFFFE0
FFFFE0
FFFFE0
ENDCHAR
STARTCHAR bracketleft
ENCODING 91
SWIDTH 390 0
DWIDTH 12 0
BBX 7 29 3 -5
BITMAP
FE
FE
FE
E0
E0
E0
E0
E0
E0
E0
E0
E0
E0
E0
E0
E0
E0
E0
E0
E0
E0
E0
E0
E0
E0
E0
FE
FE
FE
ENDCHAR
STARTCHAR backslash
ENCODING 92
SWIDTH 336 0
DWIDTH 11 0
BBX 11 26 0 -3
BITMAP
E000
F000
7000
7000
7800
3800
3800
3800
1C00
1C00
1C00
1E00
0E00
0E00
0F00
0700
0700
0700
0380
0380
0380
01C0
01C0
01C0
01E0
00E0
ENDCHAR
STARTCHAR bracketright
ENCODING 93
SWIDTH 390 0
DWIDTH 12 0
BBX 7 29 3 -5
BITMAP
FE
FE
FE
0E
0E
0E
0E
0E
0E
0E
0E
0E
0E
0E
0E
0E
0E
0E
0E
0E
0E
0E
0E
0E
0E
0E
FE
FE
FE
ENDCHAR
STARTCHAR asciicircum
ENCODING 94
SWIDTH 837 0
DWIDTH 27 0
BBX 20 9 3 14
BITMAP
00F000
01F800
03FC00
079E00
0F0F00
1E0780
3C03C0
7801E0
F000F0
ENDCHAR
STARTCHAR underscore
ENCODING 95
SWIDTH 500 0
DWIDTH 16 0
BBX 16 3 0 -8
BITMAP
FFFF
FFFF
FFFF
ENDCHAR
STARTCHAR grave
ENCODING 96
SWIDTH 500 0
DWIDTH 16 0
BBX 7 6 3 20
BITMAP
E0
70
38
18
0C
0E
ENDCHAR
STARTCHAR a
ENCODING 97
SWIDTH 612 0
DWIDTH 20 0
BBX 15 18 2 0
BITMAP
1FE0
7FF0
7FF8
603C
001C
000E
000E
0FFE
3FFE
7FFE
F80E
E00E
E00E
E01E
F07E
7FFE
3FEE
1F8E
ENDCHAR
STARTCHAR b
ENCODING 98
SWIDTH 634 0
DWIDTH 20 0
BBX 16 24 3 0
BITMAP
E000
E000
E000
E000
E000
E000
E3E0
EFF8
FFFC
FC3E
F00E
F00F
E007
E007
E007
E007
E007
E007
F00F
F00E
FC3E
FFFC
EFF8
E3E0
ENDCHAR
STARTCHAR c
ENCODING 99
SWIDTH 549 0
DWIDTH 18 0
BBX 14 18 2 0
BITMAP
03F8
1FFC
3FFC
7C0C
7800
F000
E000
E000
E000
E000
E000
E000
F000
7800
7C0C
3FFC
1FFC
03F8
ENDCHAR
STARTCHAR d
ENCODING 100
SWIDTH 634 0
DWIDTH 20 0
BBX 16 24 2 0
BITMAP
0007
0007
0007
0007
0007
0007
07C7
1FF7
3FFF
7C3F
700F
F00F
E007
E007
E007
E007
E007
E007
F00F
700F
7C3F
3FFF
1FF7
07C7
ENDCHAR
STARTCHAR e
ENCODING 101
SWIDTH 615 0
DWIDTH 20 0
BBX 16 18 2 0
BITMAP
07E0
1FF8
3FFC
7C1E
700E
7007
E007
FFFF
FFFF
FFFF
E000
E000
F000
7002
7C0E
3FFE
1FFC
07F0
ENDCHAR
STARTCHAR f
ENCODING 102
SWIDTH 352 0
DWIDTH 11 0
BBX 12 24 0 0
BITMAP
03F0
0FF0
1FF0
1E00
1C00
1C00
FFE0
FFE0
FFE0
1C00
1C00
1C00
1C00
1C00
1C00
1C00
1C00
1C00
1C00
1C00
1C00
1C00
1C00
1C00
ENDCHAR
STARTCHAR g
ENCODING 103
SWIDTH 634 0
DWIDTH 20 0
BBX 16 25 2 -7
BITMAP
07C7
1FF7
3FFF
7C3F
700F
F00F
E007
E007
E007
E007
E007
E007
F00F
700F
7C3F
3FFF
1FF7
07C7
0007
000F
000E
303E
3FFC
3FF8
1FE0
ENDCHAR
STARTCHAR h
ENCODING 104
SWIDTH 633 0
DWIDTH 20 0
BBX 15 24 3 0
BITMAP
E000
E000
E000
E000
E000
E000
E3F0
EFF8
FFFC
FC3C
F01E
F00E
E00E
E00E
E00E
E00E
E00E
E00E
E00E
E00E
E00E
E00E
E00E
E00E
ENDCHAR
STARTCHAR i
ENCODING 105
SWIDTH 277 0
DWIDTH 9 0
BBX 3 24 3 0
BITMAP
E0
E0
E0
E0
00
00
E0
E0
E0
E0
E0
E0
E0
E0
E0
E0
E0
E0
E0
E0
E0
E0
E0
E0
ENDCHAR
STARTCHAR j
ENCODING 106
SWIDTH 277 0
DWIDTH 9 0
BBX 7 31 -1 -7
BITMAP
0E
0E
0E
0E
00
00
0E
0E
0E
0E
0E
0E
0E
0E
0E
0E
0E
0E
0E
0E
0E
0E
0E
0E
0E
0E
0E
1E
FC
FC
F0
ENDCHAR
STARTCHAR k
ENCODING 107
SWIDTH 579 0
DWIDTH 19 0
BBX 16 24 3 0
BITMAP
E000
E000
E000
E000
E000
E000
E01E
E03C
E0F8
E1F0
E3E0
E7C0
EF00
FE00
FC00
FE00
EF00
E780
E3C0
E1E0
E0F0
E078
E03C
E01F
ENDCHAR
STARTCHAR l
ENCODING 108
SWIDTH 277 0
DWIDTH 9 0
BBX 3 24 3 0
BITMAP
E0
E0
E0
E0
E0
E0
E0
E0
E0
E0
E0
E0
E0
E0
E0
E0
E0
E0
E0
E0
E0
E0
E0
E0
ENDCHAR
STARTCHAR m
ENCODING 109
SWIDTH 974 0
DWIDTH 31 0
BBX 25 18 3 0
BITMAP
E3E07C00
EFF1FE00
FFFBFF00
F87B0F00
F03E0780
F01E0380
E01C0380
E01C0380
E01C0380
E01C0380
E01C0380
E01C0380
E01C0380
E01C0380
E01C0380
E01C0380
E01C0380
E01C0380
ENDCHAR
STARTCHAR n
ENCODING 110
SWIDTH 633 0
DWIDTH 20 0
BBX 15 18 3 0
BITMAP
E3F0
EFF8
FFFC
FC3C
F01E
F00E
E00E
E00E
E00E
E00E
E00E
E00E
E00E
E00E
E00E
E00E
E00E
E00E
ENDCHAR
STARTCHAR o
ENCODING 111
SWIDTH 611 0
DWIDTH 20 0
BBX 16 18 2 0
BITMAP
07E0
1FF8
3FFC
7C3E
700E
F00F
E007
E007
E007
E007
E007
E007
F00F
700E
7C3E
3FFC
1FF8
07E0
ENDCHAR
STARTCHAR p
ENCODING 112
SWIDTH 634 0
DWIDTH 20 0
BBX 16 25 3 -7
BITMAP
E3E0
EFF8
FFFC
FC3E
F00E
F00F
E007
E007
E007
E007
E007
E007
F00F
F00E
FC3E
FFFC
EFF8
E3E0
E000
E000
E000
E000
E000
E000
E000
ENDCHAR
STARTCHAR q
ENCODING 113
SWIDTH 634 0
DWIDTH 20 0
BBX 16 25 2 -7
BITMAP
07C7
1FF7
3FFF
7C3F
700F
F00F
E007
E007
E007
E007
E007
E007
F00F
700F
7C3F
3FFF
1FF7
07C7
0007
0007
0007
0007
0007
0007
0007
ENDCHAR
STARTCHAR r
ENCODING 114
SWIDTH 411 0
DWIDTH 13 0
BBX 10 18 3 0
BITMAP
E3C0
EFC0
FFC0
FC00
F000
F000
E000
E000
E000
E000
E000
E000
E000
E000
E000
E000
E000
E000
ENDCHAR
STARTCHAR s
ENCODING 115
SWIDTH 520 0
DWIDTH 17 0
BBX 13 18 2 0
BITMAP
1FE0
7FF0
7FF0
F010
E000
E000
FC00
7FC0
3FE0
07F0
0078
0038
0038
8038
E078
FFF0
7FE0
1F80
ENDCHAR
STARTCHAR t
ENCODING 116
SWIDTH 392 0
DWIDTH 13 0
BBX 11 23 1 0
BITMAP
3800
3800
3800
3800
3800
FFE0
FFE0
FFE0
3800
3800
3800
3800
3800
3800
3800
3800
3800
3800
3800
3C00
1FE0
1FE0
07E0
ENDCHAR
STARTCHAR u
ENCODING 117
SWIDTH 633 0
DWIDTH 20 0
BBX 15 18 3 0
BITMAP
E00E
E00E
E00E
E00E
E00E
E00E
E00E
E00E
E00E
E00E
E00E
E00E
E01E
F01E
787E
7FFE
3FEE
1F8E
ENDCHAR
STARTCHAR v
ENCODING 118
SWIDTH 591 0
DWIDTH 19 0
BBX 17 18 1 0
BITMAP
E00380
700700
700700
700700
380E00
380E00
3C1E00
1C1C00
1C1C00
1E3C00
0E3800
0E3800
077000
077000
077000
03E000
03E000
03E000
ENDCHAR
STARTCHAR w
ENCODING 119
SWIDTH 817 0
DWIDTH 26 0
BBX 23 18 1 0
BITMAP
E07C0E
E07C0E
707C1C
70EE1C
70EE1C
70EE1C
38EE38
39C738
39C738
39C738
1DC770
1F83F0
1F83F0
1F83F0
0F83E0
0F01E0
0F01E0
0F01E0
ENDCHAR
STARTCHAR x
ENCODING 120
SWIDTH 591 0
DWIDTH 19 0
BBX 17 18 1 0
BITMAP
780780
3C0F00
1E1E00
0E1E00
0F3C00
07F800
03F000
03F000
01E000
03E000
03F000
07F800
0F3800
1E3C00
1C1E00
3C0E00
780F00
F00780
ENDCHAR
STARTCHAR y
ENCODING 121
SWIDTH 591 0
DWIDTH 19 0
BBX 17 25 1 -7
BITMAP
E00380
700700
700700
780F00
380E00
3C0E00
1C1E00
1C1C00
0E3C00
0E3800
0F3800
077800
077000
03F000
03E000
03E000
01E000
01C000
01C000
038000
038000
078000
3F0000
3F0000
3C0000
ENDCHAR
STARTCHAR z
ENCODING 122
SWIDTH 524 0
DWIDTH 17 0
BBX 14 18 1 0
BITMAP
FFFC
FFFC
FFFC
0078
0078
00F0
01E0
03C0
0780
0780
0F00
1E00
3C00
7800
7800
FFFC
FFFC
FFFC
ENDCHAR
STARTCHAR braceleft
ENCODING 123
SWIDTH 636 0
DWIDTH 20 0
BBX 13 30 4 -6
BITMAP
00F8
03F8
03F8
0780
0700
0700
0700
0700
0700
0700
0700
0700
0F00
FE00
F800
FE00
0E00
0700
0700
0700
0700
0700
0700
0700
0700
0700
0780
03F8
03F8
00F8
ENDCHAR
STARTCHAR bar
ENCODING 124
SWIDTH 336 0
DWIDTH 11 0
BBX 3 32 4 -8
BITMAP
E0
E0
E0
E0
E0
E0
E0
E0
E0
E0
E0
E0
E0
E0
E0
E0
E0
E0
E0
E0
E0
E0
E0
E0
E0
E0
E0
E0
E0
E0
E0
E0
ENDCHAR
STARTCHAR braceright
ENCODING 125
SWIDTH 636 0
DWIDTH 20 0
BBX 13 30 4 -6
BITMAP
F800
FE00
FE00
0F00
0700
0700
0700
0700
0700
0700
0700
0700
0780
03F8
00F8
03F8
0380
0700
0700
0700
0700
0700
0700
0700
0700
0700
0F00
FE00
FE00
F800
ENDCHAR
STARTCHAR asciitilde
ENCODING 126
SWIDTH 837 0
DWIDTH 27 0
BBX 20 5 3 8
BITMAP
1F8010
7FF070
FFFFF0
E0FFE0
801F80
ENDCHAR
STARTCHAR nonbreakingspace
ENCODING 160
SWIDTH 636 0
DWIDTH 20 0
BBX 1 1 0 0
BITMAP
00
ENDCHAR
STARTCHAR exclamdown
ENCODING 161
SWIDTH 400 0
DWIDTH 13 0
BBX 3 23 5 0
BITMAP
E0
E0
E0
E0
00
00
00
00
E0
E0
E0
E0
E0
E0
E0
E0
E0
E0
E0
E0
E0
E0
E0
ENDCHAR
STARTCHAR cent
ENCODING 162
SWIDTH 636 0
DWIDTH 20 0
BBX 14 27 3 -5
BITMAP
00C0
00C0
00C0
00C0
03F8
1FFC
3FFC
7CC4
78C0
F0C0
E0C0
E0C0
E0C0
E0C0
E0C0
E0C0
F0C0
78C0
7CC4
3FFC
1FFC
07F8
00C0
00C0
00C0
00C0
00C0
ENDCHAR
STARTCHAR sterling
ENCODING 163
SWIDTH 636 0
DWIDTH 20 0
BBX 16 23 2 0
BITMAP
00FC
03FF
07FF
0783
0F00
0E00
0E00
0E00
0E00
0E00
7FF8
7FF8
7FF8
0E00
0E00
0E00
0E00
0E00
0E00
0E00
FFFF
FFFF
FFFF
ENDCHAR
STARTCHAR currency
ENCODING 164
SWIDTH 636 0
DWIDTH 20 0
BBX 17 17 2 2
BITMAP
400100
E00380
71C700
3FFE00
1FFC00
1E3C00
1C1C00
380E00
380E00
380E00
1C1C00
1E3C00
1FFC00
3FFE00
71C700
E00380
400100
ENDCHAR
STARTCHAR yen
ENCODING 165
SWIDTH 636 0
DWIDTH 20 0
BBX 17 23 2 0
BITMAP
F00780
700700
780F00
380E00
3C1E00
1C1C00
1E3C00
0E3800
077000
7F7F00
7FFF00
03E000
01C000
01C000
7FFF00
7FFF00
01C000
01C000
01C000
01C000
01C000
01C000
01C000
ENDCHAR
STARTCHAR brokenbar
ENCODING 166
SWIDTH 336 0
DWIDTH 11 0
BBX 3 28 4 -5
BITMAP
E0
E0
E0
E0
E0
E0
E0
E0
E0
E0
E0
E0
00
00
00
00
E0
E0
E0
E0
E0
E0
E0
E0
E0
E0
E0
E0
ENDCHAR
STARTCHAR section
ENCODING 167
SWIDTH 500 0
DWIDTH 16 0
BBX 13 26 1 -3
BITMAP
0FC0
3FE0
7860
7020
7000
7000
3800
3C00
1F00
77C0
E1E0
E0F0
E078
F038
7838
3E70
0F60
07C0
01E0
00F0
0070
0070
4070
70E0
7FE0
1F80
ENDCHAR
STARTCHAR dieresis
ENCODING 168
SWIDTH 500 0
DWIDTH 16 0
BBX 9 3 3 21
BITMAP
E380
E380
E380
ENDCHAR
STARTCHAR copyright
ENCODING 169
SWIDTH 1000 0
DWIDTH 32 0
BBX 23 23 4 0
BITMAP
00FE00
03FF80
0F01E0
1C0070
380038
307E18
61FF0C
63810C
C30006
C60006
C60006
C60006
C60006
C60006
C30006
63810C
61FF0C
307E18
380038
1C0070
0F01E0
03FF80
00FE00
ENDCHAR
STARTCHAR ordfeminine
ENCODING 170
SWIDTH 471 0
DWIDTH 15 0
BBX 12 17 2 6
BITMAP
3F80
7FE0
40E0
0030
0030
1FF0
7FF0
E030
C030
C070
E0F0
7FB0
3F30
0000
0000
FFF0
FFF0
ENDCHAR
STARTCHAR guillemotleft
ENCODING 171
SWIDTH 611 0
DWIDTH 20 0
BBX 13 14 2 3
BITMAP
0208
0618
0E38
1C70
38E0
71C0
E380
E380
71C0
38E0
1C70
0E38
0618
0208
ENDCHAR
STARTCHAR logicalnot
ENCODING 172
SWIDTH 837 0
DWIDTH 27 0
BBX 20 9 3 4
BITMAP
FFFFF0
FFFFF0
FFFFF0
000070
000070
000070
000070
000070
000070
ENDCHAR
STARTCHAR sfthyphen
ENCODING 173
SWIDTH 360 0
DWIDTH 12 0
BBX 8 3 2 7
BITMAP
FF
FF
FF
ENDCHAR
STARTCHAR registered
ENCODING 174
SWIDTH 1000 0
DWIDTH 32 0
BBX 23 23 4 0
BITMAP
00FE00
03FF80
0F01E0
1C0070
380038
31FC18
61FE0C
61870C
C18306
C18306
C18706
C1FE06
C1F806
C18C06
C18606
61870C
61830C
318398
380038
1C0070
0F01E0
03FF80
00FE00
ENDCHAR
STARTCHAR macron
ENCODING 175
SWIDTH 500 0
DWIDTH 16 0
BBX 9 3 3 21
BITMAP
FF80
FF80
FF80
ENDCHAR
STARTCHAR degree
ENCODING 176
SWIDTH 500 0
DWIDTH 16 0
BBX 10 10 3 13
BITMAP
1E00
7F80
6180
C0C0
C0C0
C0C0
C0C0
6180
7F80
1E00
ENDCHAR
STARTCHAR plusminus
ENCODING 177
SWIDTH 837 0
DWIDTH 27 0
BBX 21 20 3 0
BITMAP
007000
007000
007000
007000
007000
007000
FFFFF8
FFFFF8
FFFFF8
007000
007000
007000
007000
007000
007000
000000
000000
FFFFF8
FFFFF8
FFFFF8
ENDCHAR
STARTCHAR twosuperior
ENCODING 178
SWIDTH 400 0
DWIDTH 13 0
BBX 9 13 1 10
BITMAP
7E00
FF00
8380
0180
0180
0300
0700
0E00
1C00
3800
7000
FF80
FF80
ENDCHAR
STARTCHAR threesuperior
ENCODING 179
SWIDTH 400 0
DWIDTH 13 0
BBX 10 13 2 10
BITMAP
3F00
FF80
C1C0
00C0
01C0
1F80
1F80
01C0
00C0
00C0
81C0
FF80
7E00
ENDCHAR
STARTCHAR acute
ENCODING 180
SWIDTH 500 0
DWIDTH 16 0
BBX 7 6 6 20
BITMAP
0E
1C
38
30
60
E0
ENDCHAR
STARTCHAR mu
ENCODING 181
SWIDTH 636 0
DWIDTH 20 0
BBX 17 25 3 -7
BITMAP
E00E00
E00E00
E00E00
E00E00
E00E00
E00E00
E00E00
E00E00
E00E00
E00E00
E00E00
E00E00
E00E00
F01E00
F83E00
FFFF80
EFE780
E7C700
E00000
E00000
E00000
E00000
E00000
E00000
E00000
ENDCHAR
STARTCHAR paragraph
ENCODING 182
SWIDTH 636 0
DWIDTH 20 0
BBX 14 26 2 -3
BITMAP
0FFC
3FFC
7F8C
7F8C
FF8C
FF8C
FF8C
FF8C
FF8C
7F8C
7F8C
3F8C
0F8C
018C
018C
018C
018C
018C
018C
018C
018C
018C
018C
018C
018C
018C
ENDCHAR
STARTCHAR periodcentered
ENCODING 183
SWIDTH 317 0
DWIDTH 10 0
BBX 3 4 3 9
BITMAP
E0
E0
E0
E0
ENDCHAR
STARTCHAR cedilla
ENCODING 184
SWIDTH 500 0
DWIDTH 16 0
BBX 6 6 5 -6
BITMAP
38
18
1C
1C
FC
F8
ENDCHAR
STARTCHAR onesuperior
ENCODING 185
SWIDTH 400 0
DWIDTH 13 0
BBX 8 13 2 10
BITMAP
38
F8
D8
18
18
18
18
18
18
18
18
FF
FF
ENDCHAR
STARTCHAR ordmasculine
ENCODING 186
SWIDTH 471 0
DWIDTH 15 0
BBX 12 17 2 6
BITMAP
1F80
3FC0
70E0
E060
C030
C030
C030
C030
C030
E070
70E0
3FC0
1F80
0000
0000
7FE0
7FE0
ENDCHAR
STARTCHAR guillemotright
ENCODING 187
SWIDTH 611 0
DWIDTH 20 0
BBX 13 14 3 3
BITMAP
8200
C300
E380
71C0
38E0
1C70
0E38
0E38
1C70
38E0
71C0
E380
C300
8200
ENDCHAR
STARTCHAR onequarter
ENCODING 188
SWIDTH 969 0
DWIDTH 31 0
BBX 28 23 2 0
BITMAP
38001C00
F8001800
D8003000
18007000
18006000
1800E000
1801C000
18018000
18038000
18030000
180601C0
FF0E03C0
FF0C06C0
001806C0
00380CC0
003018C0
007030C0
00E060C0
00C07FF0
01C07FF0
018000C0
030000C0
070000C0
ENDCHAR
STARTCHAR onehalf
ENCODING 189
SWIDTH 969 0
DWIDTH 31 0
BBX 26 23 2 0
BITMAP
38001C00
F8001800
D8003000
18007000
18006000
1800E000
1801C000
18018000
18038000
18030000
18063F00
FF0E7F80
FF0C41C0
001800C0
003800C0
00300180
00700380
00E00700
00C00E00
01C01C00
01803800
03007FC0
07007FC0
ENDCHAR
STARTCHAR threequarters
ENCODING 190
SWIDTH 969 0
DWIDTH 31 0
BBX 28 23 2 0
BITMAP
3F001C00
FF801800
C1C03000
00C07000
01C06000
1F80E000
1F81C000
01C18000
00C38000
00C30000
81C601C0
FF8E03C0
7E0C06C0
001806C0
00380CC0
003018C0
007030C0
00E060C0
00C07FF0
01C07FF0
018000C0
030000C0
070000C0
ENDCHAR
STARTCHAR questiondown
ENCODING 191
SWIDTH 530 0
DWIDTH 17 0
BBX 12 23 2 0
BITMAP
0700
0700
0700
0700
0000
0000
0700
0700
0700
0700
0F00
0E00
1C00
3800
7000
E000
E000
E000
E010
F070
7FF0
3FE0
1F80
ENDCHAR
STARTCHAR Agrave
ENCODING 192
SWIDTH 684 0
DWIDTH 22 0
BBX 21 30 0 0
BITMAP
01C000
00E000
007000
003800
000000
000000
000000
007000
00F800
00F800
01FC00
01DC00
01DC00
03CE00
038E00
078F00
070700
070700
0F0780
0E0380
0E0380
1FFFC0
1FFFC0
3FFFE0
3800E0
3800E0
7800F0
700070
700070
E00038
ENDCHAR
STARTCHAR Aacute
ENCODING 193
SWIDTH 684 0
DWIDTH 22 0
BBX 21 30 0 0
BITMAP
000E00
001C00
003800
007000
000000
000000
000000
007000
00F800
00F800
01FC00
01DC00
01DC00
03CE00
038E00
078F00
070700
070700
0F0780
0E0380
0E0380
1FFFC0
1FFFC0
3FFFE0
3800E0
3800E0
7800F0
700070
700070
E00038
ENDCHAR
STARTCHAR Acircumflex
ENCODING 194
SWIDTH 684 0
DWIDTH 22 0
BBX 21 30 0 0
BITMAP
007800
00FC00
01CE00
038700
000000
000000
000000
007000
00F800
00F800
01FC00
01DC00
01DC00
03CE00
038E00
078F00
070700
070700
0F0780
0E0380
0E0380
1FFFC0
1FFFC0
3FFFE0
3800E0
3800E0
7800F0
700070
700070
E00038
ENDCHAR
STARTCHAR Atilde
ENCODING 195
SWIDTH 684 0
DWIDTH 22 0
BBX 21 30 0 0
BITMAP
01E300
01F300
033E00
031E00
000000
000000
000000
007000
00F800
00F800
01FC00
01DC00
01DC00
03CE00
038E00
078F00
070700
070700
0F0780
0E0380
0E0380
1FFFC0
1FFFC0
3FFFE0
3800E0
3800E0
7800F0
700070
700070
E00038
ENDCHAR
STARTCHAR Adieresis
ENCODING 196
SWIDTH 684 0
DWIDTH 22 0
BBX 21 29 0 0
BITMAP
038E00
038E00
038E00
000000
000000
000000
007000
00F800
00F800
01FC00
01DC00
01DC00
03CE00
038E00
078F00
070700
070700
0F0780
0E0380
0E0380
1FFFC0
1FFFC0
3FFFE0
3800E0
3800E0
7800F0
700070
700070
E00038
ENDCHAR
STARTCHAR Aring
ENCODING 197
SWIDTH 684 0
DWIDTH 22 0
BBX 21 30 0 0
BITMAP
00F800
01FC00
038E00
030600
030600
030600
038E00
01FC00
00F800
00F800
01DC00
01DC00
03DE00
038E00
038E00
078F00
070700
070700
0E0380
0E0380
1E03C0
1FFFC0
1FFFC0
3FFFE0
3800E0
3800E0
700070
700070
700070
E00038
ENDCHAR
STARTCHAR AE
ENCODING 198
SWIDTH 974 0
DWIDTH 31 0
BBX 29 23 0 0
BITMAP
003FFFF8
007FFFF8
007FFFF8
00F38000
00E38000
01E38000
01C38000
01C38000
03838000
0383FFF0
0783FFF0
0703FFF0
0F038000
0E038000
0FFF8000
1FFF8000
1FFF8000
3C038000
38038000
78038000
7003FFF8
7003FFF8
E003FFF8
ENDCHAR
STARTCHAR Ccedilla
ENCODING 199
SWIDTH 698 0
DWIDTH 22 0
BBX 19 29 2 -6
BITMAP
00FF00
07FFC0
0FFFE0
1F01E0
3C0020
780000
700000
F00000
E00000
E00000
E00000
E00000
E00000
E00000
E00000
F00000
700000
780000
3C0020
1F01E0
0FFFE0
07FFC0
01FE00
003800
001800
001C00
001C00
00FC00
00F800
ENDCHAR
STARTCHAR Egrave
ENCODING 200
SWIDTH 631 0
DWIDTH 20 0
BBX 15 30 3 0
BITMAP
1C00
0E00
0700
0380
0000
0000
0000
FFFE
FFFE
FFFE
E000
E000
E000
E000
E000
E000
FFFC
FFFC
FFFC
E000
E000
E000
E000
E000
E000
E000
E000
FFFE
FFFE
FFFE
ENDCHAR
STARTCHAR Eacute
ENCODING 201
SWIDTH 631 0
DWIDTH 20 0
BBX 15 30 3 0
BITMAP
00E0
01C0
0380
0700
0000
0000
0000
FFFE
FFFE
FFFE
E000
E000
E000
E000
E000
E000
FFFC
FFFC
FFFC
E000
E000
E000
E000
E000
E000
E000
E000
FFFE
FFFE
FFFE
ENDCHAR
STARTCHAR Ecircumflex
ENCODING 202
SWIDTH 631 0
DWIDTH 20 0
BBX 15 30 3 0
BITMAP
0780
0FC0
1CE0
3870
0000
0000
0000
FFFE
FFFE
FFFE
E000
E000
E000
E000
E000
E000
FFFC
FFFC
FFFC
E000
E000
E000
E000
E000
E000
E000
E000
FFFE
FFFE
FFFE
ENDCHAR
STARTCHAR Edieresis
ENCODING 203
SWIDTH 631 0
DWIDTH 20 0
BBX 15 29 3 0
BITMAP
38E0
38E0
38E0
0000
0000
0000
FFFE
FFFE
FFFE
E000
E000
E000
E000
E000
E000
FFFC
FFFC
FFFC
E000
E000
E000
E000
E000
E000
E000
E000
FFFE
FFFE
FFFE
ENDCHAR
STARTCHAR Igrave
ENCODING 204
SWIDTH 294 0
DWIDTH 9 0
BBX 6 30 1 0
BITMAP
E0
70
38
1C
00
00
00
38
38
38
38
38
38
38
38
38
38
38
38
38
38
38
38
38
38
38
38
38
38
38
ENDCHAR
STARTCHAR Iacute
ENCODING 205
SWIDTH 294 0
DWIDTH 9 0
BBX 6 30 3 0
BITMAP
1C
38
70
E0
00
00
00
E0
E0
E0
E0
E0
E0
E0
E0
E0
E0
E0
E0
E0
E0
E0
E0
E0
E0
E0
E0
E0
E0
E0
ENDCHAR
STARTCHAR Icircumflex
ENCODING 206
SWIDTH 294 0
DWIDTH 9 0
BBX 10 30 0 0
BITMAP
1E00
3F00
7380
E1C0
0000
0000
0000
1C00
1C00
1C00
1C00
1C00
1C00
1C00
1C00
1C00
1C00
1C00
1C00
1C00
1C00
1C00
1C00
1C00
1C00
1C00
1C00
1C00
1C00
1C00
ENDCHAR
STARTCHAR Idieresis
ENCODING 207
SWIDTH 294 0
DWIDTH 9 0
BBX 9 29 0 0
BITMAP
E380
E380
E380
0000
0000
0000
1C00
1C00
1C00
1C00
1C00
1C00
1C00
1C00
1C00
1C00
1C00
1C00
1C00
1C00
1C00
1C00
1C00
1C00
1C00
1C00
1C00
1C00
1C00
ENDCHAR
STARTCHAR Eth
ENCODING 208
SWIDTH 774 0
DWIDTH 25 0
BBX 23 23 0 0
BITMAP
1FFE00
1FFFC0
1FFFE0
1C03F0
1C0078
1C003C
1C001C
1C001E
1C000E
1C000E
FFE00E
FFE00E
FFE00E
1C000E
1C000E
1C001E
1C001C
1C003C
1C0078
1C03F0
1FFFE0
1FFFC0
1FFC00
ENDCHAR
STARTCHAR Ntilde
ENCODING 209
SWIDTH 748 0
DWIDTH 24 0
BBX 18 30 3 0
BITMAP
078C00
07CC00
0CF800
0C7800
000000
000000
000000
F801C0
F801C0
FC01C0
FC01C0
FE01C0
EE01C0
EF01C0
E701C0
E381C0
E3C1C0
E1C1C0
E1E1C0
E0E1C0
E0F1C0
E071C0
E039C0
E03DC0
E01DC0
E01FC0
E00FC0
E00FC0
E007C0
E007C0
ENDCHAR
STARTCHAR Ograve
ENCODING 210
SWIDTH 787 0
DWIDTH 25 0
BBX 22 30 2 0
BITMAP
01C000
00E000
007000
003800
000000
000000
000000
01FE00
07FF80
0FFFC0
1F03E0
3C00F0
780078
700038
F00038
E0001C
E0001C
E0001C
E0001C
E0001C
E0001C
E0001C
700038
700038
780078
3C00F0
1F03E0
0FFFC0
07FF80
01FE00
ENDCHAR
STARTCHAR Oacute
ENCODING 211
SWIDTH 787 0
DWIDTH 25 0
BBX 22 30 2 0
BITMAP
000E00
001C00
003800
007000
000000
000000
000000
01FE00
07FF80
0FFFC0
1F03E0
3C00F0
780078
700038
F00038
E0001C
E0001C
E0001C
E0001C
E0001C
E0001C
E0001C
700038
700038
780078
3C00F0
1F03E0
0FFFC0
07FF80
01FE00
ENDCHAR
STARTCHAR Ocircumflex
ENCODING 212
SWIDTH 787 0
DWIDTH 25 0
BBX 22 30 2 0
BITMAP
007800
00FC00
01CE00
038700
000000
000000
000000
01FE00
07FF80
0FFFC0
1F03E0
3C00F0
780078
700038
F00038
E0001C
E0001C
E0001C
E0001C
E0001C
E0001C
E0001C
700038
700038
780078
3C00F0
1F03E0
0FFFC0
07FF80
01FE00
ENDCHAR
STARTCHAR Otilde
ENCODING 213
SWIDTH 787 0
DWIDTH 25 0
BBX 22 30 2 0
BITMAP
01E300
01F300
033E00
031E00
000000
000000
000000
01FE00
07FF80
0FFFC0
1F03E0
3C00F0
780078
700038
F00038
E0001C
E0001C
E0001C
E0001C
E0001C
E0001C
E0001C
700038
700038
780078
3C00F0
1F03E0
0FFFC0
07FF80
01FE00
ENDCHAR
STARTCHAR Odieresis
ENCODING 214
SWIDTH 787 0
DWIDTH 25 0
BBX 22 29 2 0
BITMAP
038E00
038E00
038E00
000000
000000
000000
01FE00
07FF80
0FFFC0
1F03E0
3C00F0
780078
700038
F00038
E0001C
E0001C
E0001C
E0001C
E0001C
E0001C
E0001C
700038
700038
780078
3C00F0
1F03E0
0FFFC0
07FF80
01FE00
ENDCHAR
STARTCHAR multiply
ENCODING 215
SWIDTH 837 0
DWIDTH 27 0
BBX 18 18 4 1
BITMAP
200100
F003C0
780780
3C0F00
1E1E00
0F3C00
07F800
03F000
01E000
01E000
03F000
07F800
0F3C00
1E1E00
3C0F00
780780
F003C0
200100
ENDCHAR
STARTCHAR Oslash
ENCODING 216
SWIDTH 787 0
DWIDTH 25 0
BBX 22 23 2 0
BITMAP
01FE0C
07FF9C
0FFFD8
1F03F0
3C00F0
7800F8
7001F8
F003B8
E0071C
E00E1C
E01C1C
E0381C
E0E01C
E1C01C
E3801C
77003C
7E0038
7C0078
3C00F0
3F03E0
6FFFC0
E7FF80
C1FE00
ENDCHAR
STARTCHAR Ugrave
ENCODING 217
SWIDTH 731 0
DWIDTH 23 0
BBX 18 30 3 0
BITMAP
070000
038000
01C000
00E000
000000
000000
000000
E001C0
E001C0
E001C0
E001C0
E001C0
E001C0
E001C0
E001C0
E001C0
E001C0
E001C0
E001C0
E001C0
E001C0
E001C0
E001C0
E001C0
F003C0
700380
7C0F80
3FFF00
1FFE00
07F800
ENDCHAR
STARTCHAR Uacute
ENCODING 218
SWIDTH 731 0
DWIDTH 23 0
BBX 18 30 3 0
BITMAP
003800
007000
00E000
01C000
000000
000000
000000
E001C0
E001C0
E001C0
E001C0
E001C0
E001C0
E001C0
E001C0
E001C0
E001C0
E001C0
E001C0
E001C0
E001C0
E001C0
E001C0
E001C0
F003C0
700380
7C0F80
3FFF00
1FFE00
07F800
ENDCHAR
STARTCHAR Ucircumflex
ENCODING 219
SWIDTH 731 0
DWIDTH 23 0
BBX 18 30 3 0
BITMAP
01E000
03F000
073800
0E1C00
000000
000000
000000
E001C0
E001C0
E001C0
E001C0
E001C0
E001C0
E001C0
E001C0
E001C0
E001C0
E001C0
E001C0
E001C0
E001C0
E001C0
E001C0
E001C0
F003C0
700380
7C0F80
3FFF00
1FFE00
07F800
ENDCHAR
STARTCHAR Udieresis
ENCODING 220
SWIDTH 731 0
DWIDTH 23 0
BBX 18 29 3 0
BITMAP
0E3800
0E3800
0E3800
000000
000000
000000
E001C0
E001C0
E001C0
E001C0
E001C0
E001C0
E001C0
E001C0
E001C0
E001C0
E001C0
E001C0
E001C0
E001C0
E001C0
E001C0
E001C0
F003C0
700380
7C0F80
3FFF00
1FFE00
07F800
ENDCHAR
STARTCHAR Yacute
ENCODING 221
SWIDTH 610 0
DWIDTH 20 0
BBX 19 30 0 0
BITMAP
001C00
003800
007000
00E000
000000
000000
000000
F001E0
7803C0
380380
3C0780
1E0F00
0E0E00
0F1E00
07BC00
03B800
03F800
01F000
00E000
00E000
00E000
00E000
00E000
00E000
00E000
00E000
00E000
00E000
00E000
00E000
ENDCHAR
STARTCHAR Thorn
ENCODING 222
SWIDTH 604 0
DWIDTH 19 0
BBX 15 23 3 0
BITMAP
E000
E000
E000
E000
FFE0
FFF8
FFFC
E03C
E01E
E00E
E00E
E00E
E00E
E01E
E03C
FFFC
FFF8
FFE0
E000
E000
E000
E000
E000
ENDCHAR
STARTCHAR germandbls
ENCODING 223
SWIDTH 629 0
DWIDTH 20 0
BBX 16 24 3 0
BITMAP
0FC0
3FF0
7FF8
7878
F03C
E01C
E07C
E1F0
E1C0
E380
E380
E380
E1E0
E1F0
E07C
E01E
E00F
E007
E007
E007
E40F
E7FE
E7FC
E3F8
ENDCHAR
STARTCHAR agrave
ENCODING 224
SWIDTH 612 0
DWIDTH 20 0
BBX 15 26 2 0
BITMAP
3800
1C00
0E00
0600
0300
0380
0000
0000
1FE0
7FF0
7FF8
603C
001C
000E
000E
0FFE
3FFE
7FFE
F80E
E00E
E00E
E01E
F07E
7FFE
3FEE
1F8E
ENDCHAR
STARTCHAR aacute
ENCODING 225
SWIDTH 612 0
DWIDTH 20 0
BBX 15 26 2 0
BITMAP
0070
00E0
01C0
0180
0300
0700
0000
0000
1FE0
7FF0
7FF8
603C
001C
000E
000E
0FFE
3FFE
7FFE
F80E
E00E
E00E
E01E
F07E
7FFE
3FEE
1F8E
ENDCHAR
STARTCHAR acircumflex
ENCODING 226
SWIDTH 612 0
DWIDTH 20 0
BBX 15 26 2 0
BITMAP
0300
0780
0FC0
0CC0
1860
3870
0000
0000
1FE0
7FF0
7FF8
603C
001C
000E
000E
0FFE
3FFE
7FFE
F80E
E00E
E00E
E01E
F07E
7FFE
3FEE
1F8E
ENDCHAR
STARTCHAR atilde
ENCODING 227
SWIDTH 612 0
DWIDTH 20 0
BBX 15 25 2 0
BITMAP
1E30
1F30
33E0
31E0
0000
0000
0000
1FE0
7FF0
7FF8
603C
001C
000E
000E
0FFE
3FFE
7FFE
F80E
E00E
E00E
E01E
F07E
7FFE
3FEE
1F8E
ENDCHAR
STARTCHAR adieresis
ENCODING 228
SWIDTH 612 0
DWIDTH 20 0
BBX 15 24 2 0
BITMAP
38E0
38E0
38E0
0000
0000
0000
1FE0
7FF0
7FF8
603C
001C
000E
000E
0FFE
3FFE
7FFE
F80E
E00E
E00E
E01E
F07E
7FFE
3FEE
1F8E
ENDCHAR
STARTCHAR aring
ENCODING 229
SWIDTH 612 0
DWIDTH 20 0
BBX 15 29 2 0
BITMAP
07C0
0FE0
1C70
1830
1830
1830
1C70
0FE0
07C0
0000
0000
1FE0
7FF0
7FF8
603C
001C
000E
000E
0FFE
3FFE
7FFE
F80E
E00E
E00E
E01E
F07E
7FFE
3FEE
1F8E
ENDCHAR
STARTCHAR ae
ENCODING 230
SWIDTH 981 0
DWIDTH 31 0
BBX 28 18 2 0
BITMAP
1FE07E00
7FF9FF80
7FFFFFC0
603FC1E0
001F00E0
000F0070
000E0070
0FFFFFF0
3FFFFFF0
7FFFFFF0
F80E0000
E00E0000
E01F0000
E01F0020
F07BC0E0
7FF3FFE0
3FE1FFC0
1F807F00
ENDCHAR
STARTCHAR ccedilla
ENCODING 231
SWIDTH 549 0
DWIDTH 18 0
BBX 14 24 2 -6
BITMAP
03F8
1FFC
3FFC
7C0C
7800
F000
E000
E000
E000
E000
E000
E000
F000
7800
7C0C
3FFC
1FFC
03F8
01C0
00C0
00E0
00E0
07E0
07C0
ENDCHAR
STARTCHAR egrave
ENCODING 232
SWIDTH 615 0
DWIDTH 20 0
BBX 16 26 2 0
BITMAP
1C00
0E00
0700
0300
0180
01C0
0000
0000
07E0
1FF8
3FFC
7C1E
700E
7007
E007
FFFF
FFFF
FFFF
E000
E000
F000
7002
7C0E
3FFE
1FFC
07F0
ENDCHAR
STARTCHAR eacute
ENCODING 233
SWIDTH 615 0
DWIDTH 20 0
BBX 16 26 2 0
BITMAP
0038
0070
00E0
00C0
0180
0380
0000
0000
07E0
1FF8
3FFC
7C1E
700E
7007
E007
FFFF
FFFF
FFFF
E000
E000
F000
7002
7C0E
3FFE
1FFC
07F0
ENDCHAR
STARTCHAR ecircumflex
ENCODING 234
SWIDTH 615 0
DWIDTH 20 0
BBX 16 26 2 0
BITMAP
0180
03C0
07E0
0660
0C30
1C38
0000
0000
07E0
1FF8
3FFC
7C1E
700E
7007
E007
FFFF
FFFF
FFFF
E000
E000
F000
7002
7C0E
3FFE
1FFC
07F0
ENDCHAR
STARTCHAR edieresis
ENCODING 235
SWIDTH 615 0
DWIDTH 20 0
BBX 16 24 2 0
BITMAP
1C70
1C70
1C70
0000
0000
0000
07E0
1FF8
3FFC
7C1E
700E
7007
E007
FFFF
FFFF
FFFF
E000
E000
F000
7002
7C0E
3FFE
1FFC
07F0
ENDCHAR
STARTCHAR igrave
ENCODING 236
SWIDTH 277 0
DWIDTH 9 0
BBX 7 26 -1 0
BITMAP
E0
70
38
18
0C
0E
00
00
0E
0E
0E
0E
0E
0E
0E
0E
0E
0E
0E
0E
0E
0E
0E
0E
0E
0E
ENDCHAR
STARTCHAR iacute
ENCODING 237
SWIDTH 277 0
DWIDTH 9 0
BBX 7 26 2 0
BITMAP
0E
1C
38
30
60
E0
00
00
70
70
70
70
70
70
70
70
70
70
70
70
70
70
70
70
70
70
ENDCHAR
STARTCHAR icircumflex
ENCODING 238
SWIDTH 277 0
DWIDTH 9 0
BBX 10 26 -1 0
BITMAP
0C00
1E00
3F00
3300
6180
E1C0
0000
0000
0E00
0E00
0E00
0E00
0E00
0E00
0E00
0E00
0E00
0E00
0E00
0E00
0E00
0E00
0E00
0E00
0E00
0E00
ENDCHAR
STARTCHAR idieresis
ENCODING 239
SWIDTH 277 0
DWIDTH 9 0
BBX 9 24 -1 0
BITMAP
E380
E380
E380
0000
0000
0000
0E00
0E00
0E00
0E00
0E00
0E00
0E00
0E00
0E00
0E00
0E00
0E00
0E00
0E00
0E00
0E00
0E00
0E00
ENDCHAR
STARTCHAR eth
ENCODING 240
SWIDTH 611 0
DWIDTH 20 0
BBX 16 24 2 0
BITMAP
1F00
0F1C
07F8
07C0
3FE0
30F0
0078
07F8
1FFC
3FFE
7C1E
700E
F007
E007
E007
E007
E007
E007
F00F
700E
7C3E
3FFC
1FF8
07E0
ENDCHAR
STARTCHAR ntilde
ENCODING 241
SWIDTH 633 0
DWIDTH 20 0
BBX 15 25 3 0
BITMAP
1E30
1F30
33E0
31E0
0000
0000
0000
E3F0
EFF8
FFFC
FC3C
F01E
F00E
E00E
E00E
E00E
E00E
E00E
E00E
E00E
E00E
E00E
E00E
E00E
E00E
ENDCHAR
STARTCHAR ograve
ENCODING 242
SWIDTH 611 0
DWIDTH 20 0
BBX 16 26 2 0
BITMAP
1C00
0E00
0700
0300
0180
01C0
0000
0000
07E0
1FF8
3FFC
7C3E
700E
F00F
E007
E007
E007
E007
E007
E007
F00F
700E
7C3E
3FFC
1FF8
07E0
ENDCHAR
STARTCHAR oacute
ENCODING 243
SWIDTH 611 0
DWIDTH 20 0
BBX 16 26 2 0
BITMAP
0038
0070
00E0
00C0
0180
0380
0000
0000
07E0
1FF8
3FFC
7C3E
700E
F00F
E007
E007
E007
E007
E007
E007
F00F
700E
7C3E
3FFC
1FF8
07E0
ENDCHAR
STARTCHAR ocircumflex
ENCODING 244
SWIDTH 611 0
DWIDTH 20 0
BBX 16 26 2 0
BITMAP
0180
03C0
07E0
0660
0C30
1C38
0000
0000
07E0
1FF8
3FFC
7C3E
700E
F00F
E007
E007
E007
E007
E007
E007
F00F
700E
7C3E
3FFC
1FF8
07E0
ENDCHAR
STARTCHAR otilde
ENCODING 245
SWIDTH 611 0
DWIDTH 20 0
BBX 16 25 2 0
BITMAP
0F18
0F98
19F0
18F0
0000
0000
0000
07E0
1FF8
3FFC
7C3E
700E
F00F
E007
E007
E007
E007
E007
E007
F00F
700E
7C3E
3FFC
1FF8
07E0
ENDCHAR
STARTCHAR odieresis
ENCODING 246
SWIDTH 611 0
DWIDTH 20 0
BBX 16 24 2 0
BITMAP
1C70
1C70
1C70
0000
0000
0000
07E0
1FF8
3FFC
7C3E
700E
F00F
E007
E007
E007
E007
E007
E007
F00F
700E
7C3E
3FFC
1FF8
07E0
ENDCHAR
STARTCHAR divide
ENCODING 247
SWIDTH 837 0
DWIDTH 27 0
BBX 20 17 3 2
BITMAP
00F000
00F000
00F000
00F000
000000
000000
000000
FFFFF0
FFFFF0
FFFFF0
000000
000000
000000
00F000
00F000
00F000
00F000
ENDCHAR
STARTCHAR oslash
ENCODING 248
SWIDTH 611 0
DWIDTH 20 0
BBX 16 20 2 -1
BITMAP
0001
07E3
1FF7
3FFE
7C3C
701E
F03E
E077
E0E7
E1C7
E387
E707
EE07
7C0F
780E
3C3E
7FFC
EFF8
C7E0
8000
ENDCHAR
STARTCHAR ugrave
ENCODING 249
SWIDTH 633 0
DWIDTH 20 0
BBX 15 26 3 0
BITMAP
3800
1C00
0E00
0600
0300
0380
0000
0000
E00E
E00E
E00E
E00E
E00E
E00E
E00E
E00E
E00E
E00E
E00E
E00E
E01E
F01E
787E
7FFE
3FEE
1F8E
ENDCHAR
STARTCHAR uacute
ENCODING 250
SWIDTH 633 0
DWIDTH 20 0
BBX 15 26 3 0
BITMAP
0070
00E0
01C0
0180
0300
0700
0000
0000
E00E
E00E
E00E
E00E
E00E
E00E
E00E
E00E
E00E
E00E
E00E
E00E
E01E
F01E
787E
7FFE
3FEE
1F8E
ENDCHAR
STARTCHAR ucircumflex
ENCODING 251
SWIDTH 633 0
DWIDTH 20 0
BBX 15 26 3 0
BITMAP
0300
0780
0FC0
0CC0
1860
3870
0000
0000
E00E
E00E
E00E
E00E
E00E
E00E
E00E
E00E
E00E
E00E
E00E
E00E
E01E
F01E
787E
7FFE
3FEE
1F8E
ENDCHAR
STARTCHAR udieresis
ENCODING 252
SWIDTH 633 0
DWIDTH 20 0
BBX 15 24 3 0
BITMAP
38E0
38E0
38E0
0000
0000
0000
E00E
E00E
E00E
E00E
E00E
E00E
E00E
E00E
E00E
E00E
E00E
E00E
E01E
F01E
787E
7FFE
3FEE
1F8E
ENDCHAR
STARTCHAR yacute
ENCODING 253
SWIDTH 591 0
DWIDTH 19 0
BBX 17 33 1 -7
BITMAP
003800
007000
00E000
00C000
018000
038000
000000
000000
E00380
700700
700700
780F00
380E00
3C0E00
1C1E00
1C1C00
0E3C00
0E3800
0F3800
077800
077000
03F000
03E000
03E000
01E000
01C000
01C000
038000
038000
078000
3F0000
3F0000
3C0000
ENDCHAR
STARTCHAR thorn
ENCODING 254
SWIDTH 634 0
DWIDTH 20 0
BBX 16 31 3 -7
BITMAP
E000
E000
E000
E000
E000
E000
E3E0
EFF8
FFFC
FC3E
F00E
F00F
E007
E007
E007
E007
E007
E007
F00F
F00E
FC3E
FFFC
EFF8
E3E0
E000
E000
E000
E000
E000
E000
E000
ENDCHAR
STARTCHAR ydieresis
ENCODING 255
SWIDTH 591 0
DWIDTH 19 0
BBX 17 31 1 -7
BITMAP
1C7000
1C7000
1C7000
000000
000000
000000
E00380
700700
700700
780F00
380E00
3C0E00
1C1E00
1C1C00
0E3C00
0E3800
0F3800
077800
077000
03F000
03E000
03E000
01E000
01C000
01C000
038000
038000
078000
3F0000
3F0000
3C0000
ENDCHAR
STARTCHAR .notdef
ENCODING -1
SWIDTH 600 0
DWIDTH 19 0
BBX 16 28 2 -5
BITMAP
FFFF
FFFF
C003
C003
C003
C003
C003
C003
C003
C003
C003
C003
C003
C003
C003
C003
C003
C003
C003
C003
C003
C003
C003
C003
C003
C003
FFFF
FFFF
ENDCHAR
STARTCHAR .null
ENCODING -1
SWIDTH 0 0
DWIDTH 0 0
BBX 1 1 0 0
BITMAP
00
ENDCHAR
STARTCHAR nonmarkingreturn
ENCODING -1
SWIDTH 317 0
DWIDTH 10 0
BBX 1 1 0 0
BITMAP
00
ENDCHAR
STARTCHAR dagger
ENCODING -1
SWIDTH 500 0
DWIDTH 16 0
BBX 15 26 1 -3
BITMAP
0380
0380
0380
0380
0380
0380
0380
FFFE
FFFE
FFFE
0380
0380
0380
0380
0380
0380
0380
0380
0380
0380
0380
0380
0380
0380
0380
0380
ENDCHAR
STARTCHAR bullet
ENCODING -1
SWIDTH 589 0
DWIDTH 19 0
BBX 9 9 5 8
BITMAP
3E00
7F00
FF80
FF80
FF80
FF80
FF80
7F00
3E00
ENDCHAR
STARTCHAR trademark
ENCODING -1
SWIDTH 1000 0
DWIDTH 32 0
BBX 21 9 5 14
BITMAP
FF3838
FF3C78
183C78
1836D8
183398
183118
183018
183018
183018
ENDCHAR
STARTCHAR notequal
ENCODING -1
SWIDTH 837 0
DWIDTH 27 0
BBX 20 20 3 0
BITMAP
000080
0001C0
000380
000700
000F00
FFFFF0
FFFFF0
FFFFF0
007800
007000
00E000
01C000
FFFFF0
FFFFF0
FFFFF0
0F0000
1E0000
1C0000
380000
100000
ENDCHAR
STARTCHAR infinity
ENCODING -1
SWIDTH 833 0
DWIDTH 27 0
BBX 20 12 3 4
BITMAP
1E0780
7F1FC0
619C20
C0F830
807010
807010
80E010
80E010
C1F030
639C60
3F0FE0
1E0780
ENDCHAR
STARTCHAR lessequal
ENCODING -1
SWIDTH 837 0
DWIDTH 27 0
BBX 20 19 3 0
BITMAP
000030
0001F0
001FF0
00FFE0
0FFE00
7FF000
FF0000
FF0000
7FF000
0FFE00
00FFE0
001FF0
0001F0
000030
000000
000000
FFFFF0
FFFFF0
FFFFF0
ENDCHAR
STARTCHAR greaterequal
ENCODING -1
SWIDTH 837 0
DWIDTH 27 0
BBX 20 19 3 0
BITMAP
C00000
F80000
FF8000
7FF000
07FF00
00FFE0
000FF0
000FF0
00FFE0
07FF00
7FF000
FF8000
F80000
C00000
000000
000000
FFFFF0
FFFFF0
FFFFF0
ENDCHAR
STARTCHAR partialdiff
ENCODING -1
SWIDTH 517 0
DWIDTH 17 0
BBX 13 21 2 0
BITMAP
0780
0FE0
1E60
0830
0030
0038
0038
0038
1F38
38B8
7078
7078
E078
E070
E070
E070
E060
E0E0
60C0
3180
1F00
ENDCHAR
STARTCHAR summation
ENCODING -1
SWIDTH 673 0
DWIDTH 22 0
BBX 21 29 0 -6
BITMAP
FFFFF8
FFFFF8
FFFFF8
7C0000
3E0000
1F0000
0F8000
07C000
03E000
01F000
00F000
007800
003C00
001E00
001F00
003E00
003C00
007800
00F000
01E000
03C000
078000
0F0000
1E0000
3C0000
780000
FFFFF8
FFFFF8
FFFFF8
ENDCHAR
STARTCHAR product
ENCODING -1
SWIDTH 756 0
DWIDTH 24 0
BBX 19 29 2 -6
BITMAP
FFFFE0
FFFFE0
FFFFE0
E000E0
E000E0
E000E0
E000E0
E000E0
E000E0
E000E0
E000E0
E000E0
E000E0
E000E0
E000E0
E000E0
E000E0
E000E0
E000E0
E000E0
E000E0
E000E0
E000E0
E000E0
E000E0
E000E0
E000E0
E000E0
E000E0
ENDCHAR
STARTCHAR pi
ENCODING -1
SWIDTH 588 0
DWIDTH 19 0
BBX 19 17 0 0
BITMAP
3FFFE0
7FFFE0
EE0E00
CE0E00
0E0E00
0C1E00
0C1C00
1C1C00
1C1C00
1C1C00
183800
183800
383800
383800
383800
383F00
301F00
ENDCHAR
STARTCHAR integral
ENCODING -1
SWIDTH 520 0
DWIDTH 17 0
BBX 15 30 1 -6
BITMAP
003C
007E
00DE
00DE
01CC
01C0
0180
0180
0380
0380
0380
0380
0380
0380
0380
0380
0380
0380
0380
0380
0380
0380
0300
0300
0700
0700
E600
F600
FC00
7800
ENDCHAR
STARTCHAR Omega
ENCODING -1
SWIDTH 764 0
DWIDTH 24 0
BBX 22 23 1 0
BITMAP
01FE00
07FF80
0FFFC0
1F03E0
3C00F0
780078
700038
F0003C
E0001C
E0001C
E0001C
E0001C
E0001C
E0001C
700038
700038
780070
3C00F0
1E01E0
0F03C0
FF87FC
FF87FC
FF87FC
ENDCHAR
STARTCHAR radical
ENCODING -1
SWIDTH 637 0
DWIDTH 20 0
BBX 19 27 1 -1
BITMAP
0000E0
0000E0
000180
000180
000300
000300
000300
000600
000600
000600
000C00
100C00
F80800
B81800
1C1800
1C1000
1C3000
0E3000
0E6000
066000
076000
07C000
03C000
038000
038000
018000
010000
ENDCHAR
STARTCHAR florin
ENCODING -1
SWIDTH 636 0
DWIDTH 20 0
BBX 20 31 0 -7
BITMAP
0003E0
0007F0
000FF0
000E10
001C00
001C00
001C00
003C00
003800
003800
003800
07FF80
07FF80
07FF80
007000
007000
007000
00E000
00E000
00E000
00E000
01E000
01C000
01C000
01C000
03C000
038000
878000
FF0000
FF0000
7C0000
ENDCHAR
STARTCHAR approxequal
ENCODING -1
SWIDTH 837 0
DWIDTH 27 0
BBX 20 11 3 4
BITMAP
1F8010
7FF070
FFFFF0
E0FFE0
801F80
000000
1F8010
7FF070
FFFFF0
E0FFE0
801F80
ENDCHAR
STARTCHAR Delta
ENCODING -1
SWIDTH 668 0
DWIDTH 21 0
BBX 22 23 0 0
BITMAP
007800
007800
00FC00
00FC00
01DE00
01CE00
01CE00
038700
038700
070780
070380
070380
0E01C0
0E01C0
1C01E0
1C00E0
1C00E0
380070
380070
700078
7FFFF8
7FFFF8
FFFFFC
ENDCHAR
STARTCHAR ellipsis
ENCODING -1
SWIDTH 1000 0
DWIDTH 32 0
BBX 25 4 4 0
BITMAP
E01C0380
E01C0380
E01C0380
E01C0380
ENDCHAR
STARTCHAR OE
ENCODING -1
SWIDTH 1069 0
DWIDTH 34 0
BBX 30 23 2 0
BITMAP
007FFFFC
03FFFFFC
0FFFFFFC
1F81C000
3C01C000
7801C000
7001C000
F001C000
E001C000
E001FFF8
E001FFF8
E001FFF8
E001C000
E001C000
E001C000
7001C000
7001C000
7801C000
3C01C000
1F81C000
0FFFFFFC
03FFFFFC
00FFFFFC
ENDCHAR
STARTCHAR oe
ENCODING -1
SWIDTH 1022 0
DWIDTH 33 0
BBX 29 18 2 0
BITMAP
07E03F00
1FF8FFC0
3FFDFFE0
7C3FE0F0
700F8070
F00F8038
E0070038
E007FFF8
E007FFF8
E007FFF8
E0070000
E0070000
F00F8000
700F8010
7C3FE070
3FFDFFF0
1FF8FFE0
07E03F80
ENDCHAR
STARTCHAR endash
ENCODING -1
SWIDTH 500 0
DWIDTH 16 0
BBX 16 3 0 7
BITMAP
FFFF
FFFF
FFFF
ENDCHAR
STARTCHAR emdash
ENCODING -1
SWIDTH 1000 0
DWIDTH 32 0
BBX 32 3 0 7
BITMAP
FFFFFFFF
FFFFFFFF
FFFFFFFF
ENDCHAR
STARTCHAR quotedblleft
ENCODING -1
SWIDTH 518 0
DWIDTH 17 0
BBX 10 8 3 15
BITMAP
30C0
71C0
71C0
6180
E380
E380
E380
E380
ENDCHAR
STARTCHAR quotedblright
ENCODING -1
SWIDTH 518 0
DWIDTH 17 0
BBX 10 8 3 15
BITMAP
71C0
71C0
71C0
71C0
6180
E380
E380
C300
ENDCHAR
STARTCHAR quoteleft
ENCODING -1
SWIDTH 317 0
DWIDTH 10 0
BBX 4 8 3 15
BITMAP
30
70
70
60
E0
E0
E0
E0
ENDCHAR
STARTCHAR quoteright
ENCODING -1
SWIDTH 317 0
DWIDTH 10 0
BBX 4 8 3 15
BITMAP
70
70
70
70
60
E0
E0
C0
ENDCHAR
STARTCHAR lozenge
ENCODING -1
SWIDTH 494 0
DWIDTH 16 0
BBX 16 32 0 -6
BITMAP
0100
0180
0180
03C0
03C0
0660
0660
0C30
0C30
1818
1818
300C
300C
6006
6006
C003
C003
4003
6006
6006
300C
300C
1818
1818
0C30
0C30
0660
0660
03C0
03C0
0180
0180
ENDCHAR
STARTCHAR Ydieresis
ENCODING -1
SWIDTH 610 0
DWIDTH 20 0
BBX 19 29 0 0
BITMAP
071C00
071C00
071C00
000000
000000
000000
F001E0
7803C0
380380
3C0780
1E0F00
0E0E00
0F1E00
07BC00
03B800
03F800
01F000
00E000
00E000
00E000
00E000
00E000
00E000
00E000
00E000
00E000
00E000
00E000
00E000
ENDCHAR
STARTCHAR fraction
ENCODING -1
SWIDTH 166 0
DWIDTH 5 0
BBX 17 23 -6 0
BITMAP
000380
000300
000600
000E00
000C00
001C00
003800
003000
007000
006000
00C000
01C000
018000
030000
070000
060000
0E0000
1C0000
180000
380000
300000
600000
E00000
ENDCHAR
STARTCHAR guilsinglleft
ENCODING -1
SWIDTH 399 0
DWIDTH 13 0
BBX 7 14 2 3
BITMAP
02
06
0E
1C
38
70
E0
E0
70
38
1C
0E
06
02
ENDCHAR
STARTCHAR guilsinglright
ENCODING -1
SWIDTH 399 0
DWIDTH 13 0
BBX 7 14 3 3
BITMAP
80
C0
E0
70
38
1C
0E
0E
1C
38
70
E0
C0
80
ENDCHAR
STARTCHAR fi
ENCODING -1
SWIDTH 629 0
DWIDTH 20 0
BBX 17 24 0 0
BITMAP
03F380
0FF380
0FF380
1E0380
1C0000
1C0000
FFFF80
FFFF80
FFFF80
1C0380
1C0380
1C0380
1C0380
1C0380
1C0380
1C0380
1C0380
1C0380
1C0380
1C0380
1C0380
1C0380
1C0380
1C0380
ENDCHAR
STARTCHAR fl
ENCODING -1
SWIDTH 629 0
DWIDTH 20 0
BBX 17 24 0 0
BITMAP
03FF80
0FFF80
1FFF80
1E0380
1C0380
1C0380
FFE380
FFE380
FFE380
1C0380
1C0380
1C0380
1C0380
1C0380
1C0380
1C0380
1C0380
1C0380
1C0380
1C0380
1C0380
1C0380
1C0380
1C0380
ENDCHAR
STARTCHAR daggerdbl
ENCODING -1
SWIDTH 500 0
DWIDTH 16 0
BBX 15 26 1 -3
BITMAP
0380
0380
0380
0380
0380
0380
0380
FFFE
FFFE
FFFE
0380
0380
0380
0380
0380
0380
FFFE
FFFE
FFFE
0380
0380
0380
0380
0380
0380
0380
ENDCHAR
STARTCHAR quotesinglbase
ENCODING -1
SWIDTH 317 0
DWIDTH 10 0
BBX 4 8 3 -4
BITMAP
70
70
70
70
60
E0
E0
C0
ENDCHAR
STARTCHAR quotedblbase
ENCODING -1
SWIDTH 518 0
DWIDTH 17 0
BBX 10 8 3 -4
BITMAP
71C0
71C0
71C0
71C0
6180
E380
E380
C300
ENDCHAR
STARTCHAR perthousand
ENCODING -1
SWIDTH 1341 0
DWIDTH 43 0
BBX 40 23 2 0
BITMAP
1F001C0000
3F80180000
71C0300000
E1E0700000
E0E0600000
E0E0C00000
E0E1C00000
E0E1800000
E0E3800000
E1E3000000
71C61F00F8
3F8E3F81FC
1F0C71C38E
0018F1E78F
0038E0E707
0030E0E707
0070E0E707
0060E0E707
00C0E0E707
01C0F1E78F
018071C38E
03003F81FC
07001F00F8
ENDCHAR
STARTCHAR dotlessi
ENCODING -1
SWIDTH 277 0
DWIDTH 9 0
BBX 3 18 3 0
BITMAP
E0
E0
E0
E0
E0
E0
E0
E0
E0
E0
E0
E0
E0
E0
E0
E0
E0
E0
ENDCHAR
STARTCHAR circumflex
ENCODING -1
SWIDTH 500 0
DWIDTH 16 0
BBX 10 6 3 20
BITMAP
0C00
1E00
3F00
3300
6180
E1C0
ENDCHAR
STARTCHAR tilde
ENCODING -1
SWIDTH 500 0
DWIDTH 16 0
BBX 10 4 3 21
BITMAP
78C0
7CC0
CF80
C780
ENDCHAR
STARTCHAR breve
ENCODING -1
SWIDTH 500 0
DWIDTH 16 0
BBX 10 4 3 22
BITMAP
C0C0
E1C0
7F80
3F00
ENDCHAR
STARTCHAR dotaccent
ENCODING -1
SWIDTH 500 0
DWIDTH 16 0
BBX 3 3 6 21
BITMAP
E0
E0
E0
ENDCHAR
STARTCHAR ring
ENCODING -1
SWIDTH 500 0
DWIDTH 16 0
BBX 9 9 4 20
BITMAP
3E00
7F00
E380
C180
C180
C180
E380
7F00
3E00
ENDCHAR
STARTCHAR hungarumlaut
ENCODING -1
SWIDTH 500 0
DWIDTH 16 0
BBX 11 6 4 20
BITMAP
1CE0
38C0
3180
7380
6300
E600
ENDCHAR
STARTCHAR ogonek
ENCODING -1
SWIDTH 500 0
DWIDTH 16 0
BBX 6 6 5 -6
BITMAP
70
60
E0
E0
FC
7C
ENDCHAR
STARTCHAR caron
ENCODING -1
SWIDTH 500 0
DWIDTH 16 0
BBX 10 6 3 20
BITMAP
E1C0
6180
3300
3F00
1E00
0C00
ENDCHAR
STARTCHAR Lslash
ENCODING -1
SWIDTH 562 0
DWIDTH 18 0
BBX 19 23 -1 0
BITMAP
0E0000
0E0000
0E0000
0E0000
0E0000
0E0000
0E1000
0E3800
0EF000
0FC000
0F8000
0E0000
3E0000
7E0000
EE0000
0E0000
0E0000
0E0000
0E0000
0E0000
0FFFE0
0FFFE0
0FFFE0
ENDCHAR
STARTCHAR lslash
ENCODING -1
SWIDTH 284 0
DWIDTH 9 0
BBX 9 24 0 0
BITMAP
1C00
1C00
1C00
1C00
1C00
1C00
1C00
1C00
1D00
1F80
1F00
1C00
7C00
FC00
5C00
1C00
1C00
1C00
1C00
1C00
1C00
1C00
1C00
1C00
ENDCHAR
STARTCHAR Scaron
ENCODING -1
SWIDTH 634 0
DWIDTH 20 0
BBX 16 30 2 0
BITMAP
1C38
0E70
07E0
03C0
0000
0000
0000
07F8
3FFE
7FFE
7806
F000
E000
E000
E000
F000
7C00
3FE0
1FF8
03FE
003E
000F
0007
0007
0007
000F
C01E
FFFE
FFFC
3FE0
ENDCHAR
STARTCHAR scaron
ENCODING -1
SWIDTH 520 0
DWIDTH 17 0
BBX 13 26 2 0
BITMAP
70E0
30C0
1980
1F80
0F00
0600
0000
0000
1FE0
7FF0
7FF0
F010
E000
E000
FC00
7FC0
3FE0
07F0
0078
0038
0038
8038
E078
FFF0
7FE0
1F80
ENDCHAR
STARTCHAR Zcaron
ENCODING -1
SWIDTH 685 0
DWIDTH 22 0
BBX 19 30 1 0
BITMAP
070E00
039C00
01F800
00F000
000000
000000
000000
FFFFE0
FFFFE0
FFFFE0
0003C0
000780
000F00
000F00
001E00
003C00
007800
00F000
01E000
01E000
03C000
078000
0F0000
1E0000
1E0000
3C0000
780000
FFFFE0
FFFFE0
FFFFE0
ENDCHAR
STARTCHAR zcaron
ENCODING -1
SWIDTH 524 0
DWIDTH 17 0
BBX 14 26 1 0
BITMAP
3870
1860
0CC0
0FC0
0780
0300
0000
0000
FFFC
FFFC
FFFC
0078
0078
00F0
01E0
03C0
0780
0780
0F00
1E00
3C00
7800
7800
FFFC
FFFC
FFFC
ENDCHAR
STARTCHAR minus
ENCODING -1
SWIDTH 837 0
DWIDTH 27 0
BBX 20 3 3 9
BITMAP
FFFFF0
FFFFF0
FFFFF0
ENDCHAR
STARTCHAR Gbreve
ENCODING -1
SWIDTH 774 0
DWIDTH 25 0
BBX 20 30 2 0
BITMAP
060600
070E00
03FC00
01F800
000000
000000
000000
01FE00
07FFC0
0FFFE0
1F01E0
3C0020
780000
700000
F00000
E00000
E00000
E00FF0
E00FF0
E00FF0
E00070
E00070
F00070
700070
780070
3C0070
1F01F0
0FFFE0
07FFC0
01FE00
ENDCHAR
STARTCHAR gbreve
ENCODING -1
SWIDTH 634 0
DWIDTH 20 0
BBX 16 33 2 -7
BITMAP
1818
1C38
0FF0
07E0
0000
0000
0000
0000
07C7
1FF7
3FFF
7C3F
700F
F00F
E007
E007
E007
E007
E007
E007
F00F
700F
7C3F
3FFF
1FF7
07C7
0007
000F
000E
303E
3FFC
3FF8
1FE0
ENDCHAR
STARTCHAR Idotaccent
ENCODING -1
SWIDTH 294 0
DWIDTH 9 0
BBX 3 29 3 0
BITMAP
E0
E0
E0
00
00
00
E0
E0
E0
E0
E0
E0
E0
E0
E0
E0
E0
E0
E0
E0
E0
E0
E0
E0
E0
E0
E0
E0
E0
ENDCHAR
STARTCHAR Scedilla
ENCODING -1
SWIDTH 634 0
DWIDTH 20 0
BBX 16 29 2 -6
BITMAP
07F8
3FFE
7FFE
7806
F000
E000
E000
E000
F000
7C00
3FE0
1FF8
03FE
003E
000F
0007
0007
0007
000F
C01E
FFFE
FFFC
3FE0
01C0
00C0
00E0
00E0
07E0
07C0
ENDCHAR
STARTCHAR scedilla
ENCODING -1
SWIDTH 520 0
DWIDTH 17 0
BBX 13 24 2 -6
BITMAP
1FE0
7FF0
7FF0
F010
E000
E000
FC00
7FC0
3FE0
07F0
0078
0038
0038
8038
E078
FFF0
7FE0
1F80
0700
0300
0380
0380
1F80
1F00
ENDCHAR
STARTCHAR Cacute
ENCODING -1
SWIDTH 698 0
DWIDTH 22 0
BBX 19 30 2 0
BITMAP
000E00
001C00
003800
007000
000000
000000
000000
00FF00
07FFC0
0FFFE0
1F01E0
3C0020
780000
700000
F00000
E00000
E00000
E00000
E00000
E00000
E00000
E00000
F00000
700000
780000
3C0020
1F01E0
0FFFE0
07FFC0
01FE00
ENDCHAR
STARTCHAR cacute
ENCODING -1
SWIDTH 549 0
DWIDTH 18 0
BBX 14 26 2 0
BITMAP
0038
0070
00E0
00C0
0180
0380
0000
0000
03F8
1FFC
3FFC
7C0C
7800
F000
E000
E000
E000
E000
E000
E000
F000
7800
7C0C
3FFC
1FFC
03F8
ENDCHAR
STARTCHAR Ccaron
ENCODING -1
SWIDTH 698 0
DWIDTH 22 0
BBX 19 30 2 0
BITMAP
038700
01CE00
00FC00
007800
000000
000000
000000
00FF00
07FFC0
0FFFE0
1F01E0
3C0020
780000
700000
F00000
E00000
E00000
E00000
E00000
E00000
E00000
E00000
F00000
700000
780000
3C0020
1F01E0
0FFFE0
07FFC0
01FE00
ENDCHAR
STARTCHAR ccaron
ENCODING -1
SWIDTH 549 0
DWIDTH 18 0
BBX 14 26 2 0
BITMAP
1C38
0C30
0660
07E0
03C0
0180
0000
0000
03F8
1FFC
3FFC
7C0C
7800
F000
E000
E000
E000
E000
E000
E000
F000
7800
7C0C
3FFC
1FFC
03F8
ENDCHAR
STARTCHAR dcroat
ENCODING -1
SWIDTH 634 0
DWIDTH 20 0
BBX 18 24 2 0
BITMAP
000700
000700
00FFC0
00FFC0
000700
000700
07C700
1FF700
3FFF00
7C3F00
700F00
F00F00
E00700
E00700
E00700
E00700
E00700
E00700
F00F00
700F00
7C3F00
3FFF00
1FF700
07C700
ENDCHAR
STARTCHAR periodcentered
ENCODING -1
SWIDTH 317 0
DWIDTH 10 0
BBX 3 4 3 9
BITMAP
E0
E0
E0
E0
ENDCHAR
STARTCHAR Euro
ENCODING -1
SWIDTH 636 0
DWIDTH 20 0
BBX 18 23 0 0
BITMAP
007E00
01FF80
03FFC0
07C1C0
0F0040
0E0000
0E0000
1C0000
7FFE00
FFFC00
1C0000
1C0000
1C0000
7FF800
FFF000
1C0000
0E0000
0E0000
0F0040
07C1C0
03FFC0
01FF80
007E00
ENDCHAR
STARTCHAR c6459
ENCODING -1
SWIDTH 500 0
DWIDTH 16 0
BBX 9 3 3 20
BITMAP
E380
E380
E380
ENDCHAR
STARTCHAR c6460
ENCODING -1
SWIDTH 500 0
DWIDTH 16 0
BBX 6 4 6 20
BITMAP
1C
38
70
E0
ENDCHAR
STARTCHAR c6461
ENCODING -1
SWIDTH 500 0
DWIDTH 16 0
BBX 10 4 3 20
BITMAP
78C0
7CC0
CF80
C780
ENDCHAR
STARTCHAR c6462
ENCODING -1
SWIDTH 500 0
DWIDTH 16 0
BBX 6 4 4 20
BITMAP
E0
70
38
1C
ENDCHAR
STARTCHAR c6463
ENCODING -1
SWIDTH 500 0
DWIDTH 16 0
BBX 10 4 3 20
BITMAP
1E00
3F00
7380
E1C0
ENDCHAR
STARTCHAR c6466
ENCODING -1
SWIDTH 500 0
DWIDTH 16 0
BBX 10 4 3 20
BITMAP
E1C0
7380
3F00
1E00
ENDCHAR
STARTCHAR c6467
ENCODING -1
SWIDTH 400 0
DWIDTH 13 0
BBX 11 13 1 10
BITMAP
0380
0780
0D80
0D80
1980
3180
6180
C180
FFE0
FFE0
0180
0180
0180
ENDCHAR
STARTCHAR c6468
ENCODING -1
SWIDTH 500 0
DWIDTH 16 0
BBX 10 4 3 20
BITMAP
C0C0
E1C0
7F80
3F00
ENDCHAR
STARTCHAR c6469
ENCODING -1
SWIDTH 500 0
DWIDTH 16 0
BBX 3 3 6 20
BITMAP
E0
E0
E0
ENDCHAR
ENDFONT
